<?xml version="1.0" encoding="UTF-8"?>
<svg version="1.1" xmlns="http://www.w3.org/2000/svg" width="500" height="500">
<path d="M0 0 C17.86487134 14.65896189 28.31627282 35.30237309 30.97363281 58.17553711 C32.57789853 83.84692805 25.21367662 106.86825988 8.38208008 126.50073242 C-6.14816978 142.69418707 -27.27250299 152.94107158 -49.02270508 154.30029297 C-74.8190962 155.26416697 -97.61952948 147.49478759 -116.95605469 130.14428711 C-132.76416654 115.27302531 -142.41221387 93.79136799 -143.22949219 72.11694336 C-143.63764174 49.58657459 -138.06098862 29.9987915 -124.02636719 12.17553711 C-123.33929688 11.29381836 -122.65222656 10.41209961 -121.94433594 9.50366211 C-91.36786428 -27.02926507 -36.12969258 -28.48768326 0 0 Z M-79.02636719 13.17553711 C-84.51959393 20.34887309 -87.16288158 28.12658073 -86.02636719 37.17553711 C-83.76753742 46.65721175 -79.19605435 53.53784312 -71.15136719 59.05053711 C-63.84370875 63.21028114 -56.19239699 64.06965462 -48.02636719 62.17553711 C-39.26245678 59.2099043 -32.81823995 53.71984941 -28.64355469 45.42944336 C-25.34030067 37.10200928 -25.10945102 30.25028247 -27.92480469 21.69897461 C-31.81372974 12.79030234 -38.26481562 7.92536854 -46.77636719 3.86303711 C-58.9654922 1.28456836 -70.52187337 3.73815238 -79.02636719 13.17553711 Z M-91.27636719 89.48803711 C-96.38220025 97.32913788 -97.59666542 104.57348412 -97.27636719 113.80053711 C-97.25832031 114.8047168 -97.24027344 115.80889648 -97.22167969 116.84350586 C-97.17510716 119.28856363 -97.10973747 121.73150523 -97.02636719 124.17553711 C-96.03636719 124.50553711 -95.04636719 124.83553711 -94.02636719 125.17553711 C-92.08782012 123.56306787 -91.1154281 122.68458859 -90.67333984 120.15771484 C-90.67897949 119.39918213 -90.68461914 118.64064941 -90.69042969 117.85913086 C-90.68124512 117.01688965 -90.67206055 116.17464844 -90.66259766 115.30688477 C-90.6588916 114.41791504 -90.65518555 113.52894531 -90.65136719 112.61303711 C-90.40082813 103.76853553 -89.5070261 97.13626662 -83.38574219 90.35913086 C-75.78002057 83.25017934 -68.34609155 82.64007324 -58.23022461 82.67456055 C-56.22912925 82.67552972 -54.22816981 82.63272933 -52.22753906 82.58959961 C-43.23195027 82.57161742 -35.91926516 83.6622984 -29.12280273 89.93139648 C-21.95580053 97.49650211 -21.59866285 105.23728281 -21.49902344 115.14428711 C-21.46615234 116.43592773 -21.46615234 116.43592773 -21.43261719 117.75366211 C-21.42552734 118.53128906 -21.4184375 119.30891602 -21.41113281 120.11010742 C-20.93694364 122.65556453 -19.98684514 123.54872991 -18.02636719 125.17553711 C-17.03636719 124.84553711 -16.04636719 124.51553711 -15.02636719 124.17553711 C-14.02666001 103.13930421 -14.02666001 103.13930421 -24.08886719 85.23803711 C-33.63051066 76.77597887 -43.75452635 75.38300546 -56.15136719 75.61303711 C-58.09076172 75.59660156 -58.09076172 75.59660156 -60.06933594 75.57983398 C-73.94264033 75.6856832 -81.79749999 79.74586805 -91.27636719 89.48803711 Z " fill="#442C19" transform="translate(306.0263671875,182.824462890625)"/>
<path d="M0 0 C8.25 0 16.5 0 25 0 C25 7.02669193 24.94828178 13.25296864 23.8125 20.0625 C23.6117688 21.27667603 23.6117688 21.27667603 23.40698242 22.51538086 C18.10723609 52.94094406 4.23248755 79.57230619 -17 102 C-17.81984375 102.88429688 -18.6396875 103.76859375 -19.484375 104.6796875 C-43.1889671 129.43625854 -77.85073208 145.39704101 -112 148 C-115.63 148 -119.26 148 -123 148 C-123 139.75 -123 131.5 -123 123 C-119.679375 122.5875 -116.35875 122.175 -112.9375 121.75 C-79.03356157 117.22149513 -49.16751898 101.94205014 -27.43457031 75.06396484 C-10.36214925 52.61233176 -3.16449542 27.75019057 0 0 Z " fill="#432C19" transform="translate(376,253)"/>
<path d="M0 0 C0 8.25 0 16.5 0 25 C-3.25875 25.391875 -6.5175 25.78375 -9.875 26.1875 C-43.76870014 30.63910453 -73.86924618 46.10341893 -95.56542969 72.93603516 C-112.58446926 95.31746719 -120.07203083 120.29690707 -123 148 C-131.25 148 -139.5 148 -148 148 C-148 140.97330807 -147.94828178 134.74703136 -146.8125 127.9375 C-146.6786792 127.12804932 -146.5448584 126.31859863 -146.40698242 125.48461914 C-141.10723609 95.05905594 -127.23248755 68.42769381 -106 46 C-105.18015625 45.11570313 -104.3603125 44.23140625 -103.515625 43.3203125 C-81.0962833 19.9060296 -50.62592695 6.40969803 -19 1 C-18.23171875 0.86722656 -17.4634375 0.73445313 -16.671875 0.59765625 C-11.04026988 -0.23792744 -5.81673991 0 0 0 Z " fill="#442C19" transform="translate(247,99)"/>
<path d="M0 0 C8.25 0 16.5 0 25 0 C25.391875 3.25875 25.78375 6.5175 26.1875 9.875 C29.67705485 36.44383039 39.39323182 59.6951416 57 80 C57.85624137 81.08169428 58.71080142 82.16472522 59.5625 83.25 C70.78101131 95.90678199 85.65844771 105.21269533 101 112 C102.08925781 112.48210937 103.17851562 112.96421875 104.30078125 113.4609375 C118.39079809 119.25135538 132.93737622 121.48107996 148 123 C148 131.25 148 139.5 148 148 C140.95824503 148 134.70358173 147.94446761 127.875 146.8125 C127.06514648 146.68012939 126.25529297 146.54775879 125.42089844 146.41137695 C94.54356078 141.05565643 67.42800727 126.64599865 45 105 C43.72189453 103.81664062 43.72189453 103.81664062 42.41796875 102.609375 C18.02793517 79.41003597 2.54662079 44.41014435 0 11 C0 7.37 0 3.74 0 0 Z " fill="#432C19" transform="translate(99,253)"/>
<path d="M0 0 C7.02669193 0 13.25296864 0.05171822 20.0625 1.1875 C20.87195068 1.3213208 21.68140137 1.4551416 22.51538086 1.59301758 C52.94094406 6.89276391 79.57230619 20.76751245 102 42 C102.88429688 42.81984375 103.76859375 43.6396875 104.6796875 44.484375 C129.43625854 68.1889671 145.39704101 102.85073208 148 137 C148 140.63 148 144.26 148 148 C139.75 148 131.5 148 123 148 C122.608125 144.74125 122.21625 141.4825 121.8125 138.125 C118.25789299 111.16205422 108.47909685 88.84343629 91 68 C90.56171875 67.43925781 90.1234375 66.87851563 89.671875 66.30078125 C71.18601507 42.82373914 38.97541233 29.69878472 10.17211914 26.10766602 C6.78404216 25.71504787 3.39154958 25.36139463 0 25 C0 16.75 0 8.5 0 0 Z " fill="#432C19" transform="translate(253,99)"/>
<path d="M0 0 C8.91 0 17.82 0 27 0 C27 6.99517667 26.77566457 12.85999103 25.375 19.5625 C25.19533691 20.42601074 25.01567383 21.28952148 24.83056641 22.17919922 C20.42424337 42.37268468 11.85469214 60.55371422 -2 76 C-2.57105469 76.70125 -3.14210938 77.4025 -3.73046875 78.125 C-8.48404865 83.90607579 -14.08205181 88.45026824 -20 93 C-20.78117187 93.6084375 -21.56234375 94.216875 -22.3671875 94.84375 C-29.69373252 100.27082039 -37.76864056 104.15662423 -46 108 C-46.87527344 108.41378906 -47.75054687 108.82757813 -48.65234375 109.25390625 C-61.60134243 114.89834157 -76.00720234 117 -90 117 C-90 108.09 -90 99.18 -90 90 C-86.0090625 89.4121875 -86.0090625 89.4121875 -81.9375 88.8125 C-63.00606728 85.74829423 -43.82923226 78.47702355 -30.359375 64.26953125 C-29 63 -29 63 -27 63 C-26.60167969 62.11441406 -26.60167969 62.11441406 -26.1953125 61.2109375 C-24.96909696 58.94283948 -23.66648412 57.46647902 -21.875 55.625 C-16.87601275 50.02196846 -13.45582101 43.61208882 -10 37 C-9.52433594 36.11183594 -9.04867187 35.22367187 -8.55859375 34.30859375 C-3.48674059 23.64021296 -2.13917929 11.49044876 0 0 Z " fill="#432C19" transform="translate(343,253)"/>
<path d="M0 0 C31.08146951 0 59.09537418 12.61237301 81.6953125 33.65625 C85.80883035 37.83948849 89.44453101 42.33927286 93 47 C93.60585938 47.77859375 94.21171875 48.5571875 94.8359375 49.359375 C109.19950643 68.72744533 117 93.02538633 117 117 C108.09 117 99.18 117 90 117 C89.443125 113.82375 88.88625 110.6475 88.3125 107.375 C84.88643286 88.97869416 78.24612914 73.34185845 66 59 C65.38898438 58.19046875 64.77796875 57.3809375 64.1484375 56.546875 C48.0274832 37.43621644 23.61356711 30.63285648 0 27 C0 18.09 0 9.18 0 0 Z " fill="#432C19" transform="translate(253,130)"/>
<path d="M0 0 C0 8.91 0 17.82 0 27 C-3.361875 27.556875 -6.72375 28.11375 -10.1875 28.6875 C-28.40348405 31.9108826 -43.84503329 38.91345272 -58 51 C-58.80953125 51.61101562 -59.6190625 52.22203125 -60.453125 52.8515625 C-79.56378356 68.9725168 -86.36714352 93.38643289 -90 117 C-98.91 117 -107.82 117 -117 117 C-117 109.86979172 -116.70544378 103.94822726 -115.25 97.125 C-114.97494629 95.81257324 -114.97494629 95.81257324 -114.69433594 94.47363281 C-110.35905655 74.3885734 -101.27105861 55.32698587 -87.11328125 40.2890625 C-84.95823848 38.02072451 -84.95823848 38.02072451 -83.05078125 35.484375 C-79.32271441 30.96808831 -74.60607134 27.57975209 -70 24 C-69.21496094 23.38769531 -68.42992187 22.77539062 -67.62109375 22.14453125 C-48.23281209 7.80835683 -23.9815749 0 0 0 Z " fill="#432C19" transform="translate(247,130)"/>
<path d="M0 0 C8.91 0 17.82 0 27 0 C27.391875 2.660625 27.78375 5.32125 28.1875 8.0625 C31.25446625 27.01098769 38.42709204 43.4724803 51 58 C51.60714844 58.80566406 52.21429688 59.61132812 52.83984375 60.44140625 C68.82400381 79.37382006 93.51890614 86.54154431 117 90 C117 98.91 117 107.82 117 117 C88.89148316 117 60.86788824 106.48766067 40.2890625 87.11328125 C38.02072451 84.95823848 38.02072451 84.95823848 35.484375 83.05078125 C30.96808831 79.32271441 27.57975209 74.60607134 24 70 C23.38769531 69.21496094 22.77539062 68.42992187 22.14453125 67.62109375 C11.70482103 53.50240098 5.23859449 36.83449916 1.6875 19.75 C1.51573242 18.9343457 1.34396484 18.11869141 1.16699219 17.27832031 C0.00177026 11.25273636 0 6.3412553 0 0 Z " fill="#432C19" transform="translate(130,253)"/>
<path d="M0 0 C26.4 0 52.8 0 80 0 C80 7.92 80 15.84 80 24 C69.73422882 24.06768869 59.46860505 24.12276557 49.20266151 24.15543652 C44.43613033 24.17111433 39.6697593 24.19239099 34.90332031 24.22631836 C30.3062418 24.25883666 25.70931764 24.27683706 21.11213303 24.28463173 C19.35537662 24.29018882 17.59862897 24.30104003 15.84193802 24.31719017 C13.38743872 24.33886478 10.93358299 24.34197117 8.47900391 24.34057617 C7.74748611 24.351362 7.01596832 24.36214783 6.26228333 24.3732605 C4.23965454 24.36076355 4.23965454 24.36076355 1 24 C-1.08322162 20.87516757 -1.2494731 20.17118109 -1.23046875 16.62109375 C-1.22756836 15.36329102 -1.22756836 15.36329102 -1.22460938 14.08007812 C-1.21236328 13.20802734 -1.20011719 12.33597656 -1.1875 11.4375 C-1.18685547 10.56158203 -1.18621094 9.68566406 -1.18554688 8.78320312 C-1.14049693 2.28099385 -1.14049693 2.28099385 0 0 Z " fill="#432C19" transform="translate(64,65)"/>
<path d="M0 0 C5.88679373 3.34089741 9.1231376 7.85974226 12 13.875 C13.56699863 21.70999316 13.12137677 27.68416106 9.16796875 34.73828125 C5.34395094 40.34361369 0.61601065 43.73094331 -5.91796875 45.58984375 C-13.12749474 46.79334173 -19.6087571 45.78120901 -25.58984375 41.51953125 C-31.14415708 36.7916803 -34.89649306 32.15917481 -35.58984375 24.68359375 C-35.8835735 16.98787428 -34.36048656 10.20986635 -29 4.38671875 C-20.5569699 -2.81827088 -10.18614728 -4.49658754 0 0 Z " fill="#432D19" transform="translate(261.375,194)"/>
<path d="M0 0 C4.47920597 -0.02682159 8.95825351 -0.04675177 13.4375 -0.0625 C14.71689453 -0.07087891 15.99628906 -0.07925781 17.31445312 -0.08789062 C19.13686523 -0.09272461 19.13686523 -0.09272461 20.99609375 -0.09765625 C22.12200928 -0.10289307 23.2479248 -0.10812988 24.40795898 -0.11352539 C27 0 27 0 28 1 C28.25098924 4.47208807 28.18522096 7.9574062 28.1875 11.4375 C28.19974609 12.41783203 28.21199219 13.39816406 28.22460938 14.40820312 C28.22750977 15.81295898 28.22750977 15.81295898 28.23046875 17.24609375 C28.23457764 18.10904053 28.23868652 18.9719873 28.24291992 19.86108398 C28 22 28 22 26 24 C23.38623047 24.22705078 23.38623047 24.22705078 20.1171875 24.1953125 C18.95058594 24.18886719 17.78398437 24.18242188 16.58203125 24.17578125 C15.35871094 24.15902344 14.13539063 24.14226562 12.875 24.125 C11.64394531 24.11597656 10.41289062 24.10695313 9.14453125 24.09765625 C6.09627194 24.07402633 3.04811211 24.03815439 0 24 C0 16.08 0 8.16 0 0 Z " fill="#432D1A" transform="translate(150,65)"/>
<path d="M0 0 C2.96844435 -0.35338623 5.15598218 -0.5417682 7.734375 1.11328125 C9.20348819 2.35503168 10.60704814 3.67337918 12 5 C12.70125 4.175 13.4025 3.35 14.125 2.5 C17 0 17 0 20.3125 -0.3125 C21.199375 -0.209375 22.08625 -0.10625 23 0 C23.68359375 1.734375 23.68359375 1.734375 24 4 C22.78515625 6.140625 22.78515625 6.140625 21.0625 8.25 C20.49660156 8.95640625 19.93070312 9.6628125 19.34765625 10.390625 C18.90292969 10.92171875 18.45820313 11.4528125 18 12 C19.98 14.31 21.96 16.62 24 19 C23.01 21.475 23.01 21.475 22 24 C17.2482602 23.56802365 15.07999946 22.67230705 12 19 C9.72928539 20.01790655 8.19215368 20.77442829 6.5625 22.6875 C6.046875 23.120625 5.53125 23.55375 5 24 C2.3125 23.6875 2.3125 23.6875 0 23 C-0.8125 20.8125 -0.8125 20.8125 -1 18 C1.4375 15.1875 1.4375 15.1875 4 13 C2.94685471 10.73168707 1.96477715 8.95955895 0.3125 7.0625 C-1 5 -1 5 -0.6875 2.25 C-0.460625 1.5075 -0.23375 0.765 0 0 Z " fill="#442D19" transform="translate(412,65)"/>
<path d="M0 0 C2.96844435 -0.35338623 5.15598218 -0.5417682 7.734375 1.11328125 C9.20348819 2.35503168 10.60704814 3.67337918 12 5 C12.721875 4.175 13.44375 3.35 14.1875 2.5 C17 0 17 0 19.8125 -0.3125 C20.534375 -0.209375 21.25625 -0.10625 22 0 C22.66 1.32 23.32 2.64 24 4 C22.02 6.64 20.04 9.28 18 12 C19.98 14.31 21.96 16.62 24 19 C23.01 21.475 23.01 21.475 22 24 C17.2482602 23.56802365 15.07999946 22.67230705 12 19 C9.72928539 20.01790655 8.19215368 20.77442829 6.5625 22.6875 C6.046875 23.120625 5.53125 23.55375 5 24 C2.3125 23.6875 2.3125 23.6875 0 23 C-0.8125 20.8125 -0.8125 20.8125 -1 18 C1.4375 15.1875 1.4375 15.1875 4 13 C2.94685471 10.73168707 1.96477715 8.95955895 0.3125 7.0625 C-1 5 -1 5 -0.6875 2.25 C-0.460625 1.5075 -0.23375 0.765 0 0 Z " fill="#432D1A" transform="translate(382,65)"/>
<path d="M0 0 C2.96844435 -0.35338623 5.15598218 -0.5417682 7.734375 1.11328125 C9.20348819 2.35503168 10.60704814 3.67337918 12 5 C12.721875 4.175 13.44375 3.35 14.1875 2.5 C17 0 17 0 19.75 -0.375 C22 0 22 0 23 1 C23.46167861 3.69312522 23.42697209 5.36402059 21.8828125 7.6640625 C20.63593427 9.15045407 19.32142331 10.57946994 18 12 C18.44472656 12.45890625 18.88945312 12.9178125 19.34765625 13.390625 C19.91355469 14.00421875 20.47945313 14.6178125 21.0625 15.25 C21.63097656 15.85328125 22.19945312 16.4565625 22.78515625 17.078125 C24 19 24 19 23.68359375 21.234375 C23.34521484 22.10835937 23.34521484 22.10835937 23 23 C20.875 23.8125 20.875 23.8125 18 24 C15.69892439 22.55576519 13.98353614 20.89127865 12 19 C9.72928539 20.01790655 8.19215368 20.77442829 6.5625 22.6875 C6.046875 23.120625 5.53125 23.55375 5 24 C2.3125 23.6875 2.3125 23.6875 0 23 C-0.8125 20.8125 -0.8125 20.8125 -1 18 C1.4375 15.1875 1.4375 15.1875 4 13 C2.94685471 10.73168707 1.96477715 8.95955895 0.3125 7.0625 C-1 5 -1 5 -0.6875 2.25 C-0.460625 1.5075 -0.23375 0.765 0 0 Z " fill="#432D19" transform="translate(352,65)"/>
<path d="M0 0 C2.96844435 -0.35338623 5.15598218 -0.5417682 7.734375 1.11328125 C9.20348819 2.35503168 10.60704814 3.67337918 12 5 C12.721875 4.175 13.44375 3.35 14.1875 2.5 C17 0 17 0 19.75 -0.375 C22 0 22 0 23 1 C23.46167861 3.69312522 23.42697209 5.36402059 21.8828125 7.6640625 C20.63593427 9.15045407 19.32142331 10.57946994 18 12 C19.2375 13.051875 19.2375 13.051875 20.5 14.125 C23 17 23 17 23.3125 20.3125 C23.209375 21.199375 23.10625 22.08625 23 23 C20.875 23.8125 20.875 23.8125 18 24 C15.69892439 22.55576519 13.98353614 20.89127865 12 19 C9.72928539 20.01790655 8.19215368 20.77442829 6.5625 22.6875 C6.046875 23.120625 5.53125 23.55375 5 24 C2.3125 23.6875 2.3125 23.6875 0 23 C-0.8125 20.8125 -0.8125 20.8125 -1 18 C1.4375 15.1875 1.4375 15.1875 4 13 C2.94685471 10.73168707 1.96477715 8.95955895 0.3125 7.0625 C-1 5 -1 5 -0.6875 2.25 C-0.460625 1.5075 -0.23375 0.765 0 0 Z " fill="#442C19" transform="translate(322,65)"/>
<path d="M0 0 C2.64 0 5.28 0 8 0 C8.02464574 5.96313166 8.042834 11.92623395 8.05493164 17.8894043 C8.05997278 19.91968298 8.06680557 21.94995802 8.07543945 23.98022461 C8.08751467 26.89177347 8.09323034 29.8032745 8.09765625 32.71484375 C8.10281754 33.6283812 8.10797882 34.54191864 8.11329651 35.48313904 C8.11349168 37.65575427 8.06211805 39.82827296 8 42 C7 43 7 43 4 43.125 C1 43 1 43 0 42 C-0.08874135 38.89748799 -0.11518455 35.8173188 -0.09765625 32.71484375 C-0.0962413 31.78402481 -0.09482635 30.85320587 -0.09336853 29.8941803 C-0.08775172 26.90858809 -0.0751964 23.92306971 -0.0625 20.9375 C-0.05748716 18.91862087 -0.05292388 16.89974057 -0.04882812 14.88085938 C-0.03777683 9.92054428 -0.02050095 4.96028468 0 0 Z " fill="#442D19" transform="translate(246,407)"/>
<path d="M0 0 C5.96313166 -0.02464574 11.92623395 -0.042834 17.8894043 -0.05493164 C19.91968298 -0.05997278 21.94995802 -0.06680557 23.98022461 -0.07543945 C26.89177347 -0.08751467 29.8032745 -0.09323034 32.71484375 -0.09765625 C33.6283812 -0.10281754 34.54191864 -0.10797882 35.48313904 -0.11329651 C37.65575427 -0.11349168 39.82827296 -0.06211805 42 0 C43 1 43 1 43.125 4 C43 7 43 7 42 8 C38.89748799 8.08874135 35.8173188 8.11518455 32.71484375 8.09765625 C31.78402481 8.0962413 30.85320587 8.09482635 29.8941803 8.09336853 C26.90858809 8.08775172 23.92306971 8.0751964 20.9375 8.0625 C18.91862087 8.05748716 16.89974057 8.05292388 14.88085938 8.04882812 C9.92054428 8.03777683 4.96028468 8.02050095 0 8 C0 5.36 0 2.72 0 0 Z " fill="#442D19" transform="translate(407,246)"/>
<path d="M0 0 C1.77206192 0.00015919 3.54412846 0.00585754 5.31616211 0.01586914 C6.24698105 0.01728409 7.17779999 0.01869904 8.13682556 0.02015686 C11.12241777 0.02577367 14.10793615 0.03832899 17.09350586 0.05102539 C19.11238499 0.05603823 21.13126529 0.06060151 23.15014648 0.06469727 C28.11046158 0.07574856 33.07072118 0.09302444 38.03100586 0.11352539 C38.03100586 2.75352539 38.03100586 5.39352539 38.03100586 8.11352539 C32.06787419 8.13817113 26.10477191 8.15635939 20.14160156 8.16845703 C18.11132288 8.17349817 16.08104784 8.18033096 14.05078125 8.18896484 C11.13923239 8.20104006 8.22773136 8.20675573 5.31616211 8.21118164 C3.94585594 8.21892357 3.94585594 8.21892357 2.54786682 8.2268219 C0.37525159 8.22701707 -1.7972671 8.17564344 -3.96899414 8.11352539 C-4.96899414 7.11352539 -4.96899414 7.11352539 -5.09399414 4.11352539 C-4.90518083 -0.4179941 -4.73462291 0.13542472 0 0 Z " fill="#442C19" transform="translate(54.968994140625,245.886474609375)"/>
<path d="M0 0 C3 0.125 3 0.125 4 1.125 C4.08874135 4.22751201 4.11518455 7.3076812 4.09765625 10.41015625 C4.0962413 11.34097519 4.09482635 12.27179413 4.09336853 13.2308197 C4.08775172 16.21641191 4.0751964 19.20193029 4.0625 22.1875 C4.05748716 24.20637913 4.05292388 26.22525943 4.04882812 28.24414062 C4.03777683 33.20445572 4.02050095 38.16471532 4 43.125 C1.36 43.125 -1.28 43.125 -4 43.125 C-4.02464574 37.16186834 -4.042834 31.19876605 -4.05493164 25.2355957 C-4.05997278 23.20531702 -4.06680557 21.17504198 -4.07543945 19.14477539 C-4.08751467 16.23322653 -4.09323034 13.3217255 -4.09765625 10.41015625 C-4.10281754 9.4966188 -4.10797882 8.58308136 -4.11329651 7.64186096 C-4.11349168 5.46924573 -4.06211805 3.29672704 -4 1.125 C-3 0.125 -3 0.125 0 0 Z " fill="#442D19" transform="translate(250,49.875)"/>
</svg>
